<svg xmlns="http://www.w3.org/2000/svg" width="1440" height="1000" viewBox="0 0 1440 1000" role="img" aria-labelledby="title desc" lang="fa">
<title id="title">SF-C-01 — آسیاب دستی حرفه‌ای مدل E-Q40 — initial — 1440px</title>
<desc id="desc">وایرفریم کم‌جزئیات فارسی و راست‌به‌چپ برای Step 55-C؛ اقدام اصلی انتخاب مدل و ادامه و بازیابی بازخوانی قیمت و موجودی.</desc>
<style>text{font-family:Vazirmatn,Tahoma,Arial,sans-serif;fill:#0F172A}.h1{font-size:28px;font-weight:700}.h2{font-size:18px;font-weight:700}.body{font-size:14px}.label{font-size:13px;font-weight:600}.meta{font-size:11px}.muted{fill:#64748B}.mono{font-family:monospace}</style>
<rect x="0" y="0" width="1440" height="1000" rx="0" fill="#F8FAFC" stroke="#F8FAFC"/>
<rect x="80" y="18" width="1280" height="82" rx="8" fill="#FFFFFF" stroke="#CBD5E1"/>
<text x="1348" y="46" class="label" text-anchor="end">جای نشان تأییدشده</text>
<rect x="92" y="30" width="360" height="44" rx="6" fill="#F8FAFC" stroke="#94A3B8"/>
<text x="440" y="58" class="body" text-anchor="end">جست‌وجوی محصول</text>
<text x="1170" y="94" class="meta muted" text-anchor="end">دسته‌ها · مقایسه · حساب · سبد</text>
<text x="1360" y="128" class="meta muted" text-anchor="end">فروشگاه / محصول / SF-C-01</text>
<text x="1360" y="166" class="h1" text-anchor="end">آسیاب دستی حرفه‌ای مدل E-Q40</text>
<rect x="80" y="186" width="1280" height="76" rx="8" fill="#FFFFFF" stroke="#0F766E"/>
<text x="1348" y="210" class="h2" text-anchor="end" fill="#0F766E" style="fill:#0F766E">جزئیات محصول آماده است</text>
<text x="1348" y="231" class="body" text-anchor="end">مدل استیل، موجودی ۸ عدد و قیمت جاری ۴٬۸۹۰٬۰۰۰ تومان از منبع authoritative نمایش داده می‌شود.</text>
<text x="92" y="248" class="label" text-anchor="start" fill="#0F766E" style="fill:#0F766E">انتخاب مدل استیل</text>
<rect x="80" y="286" width="730" height="500" rx="8" fill="#F1F5F9" stroke="#94A3B8"/>
<text x="445" y="516" class="h2" text-anchor="middle">رسانه محصول — منبع تصویری</text>
<text x="445" y="540" class="h2" text-anchor="middle">اختراع نشده</text>
<text x="445" y="572" class="body muted" text-anchor="middle">شرح جایگزین و کنترل قبلی / بعدی</text>
<rect x="92" y="734" width="84" height="36" rx="6" fill="#FFFFFF" stroke="#0F766E"/>
<text x="134" y="757" class="label" text-anchor="middle" fill="#0F766E" style="fill:#0F766E">قاب بعدی</text>
<rect x="834" y="286" width="526" height="500" rx="8" fill="#FFFFFF" stroke="#CBD5E1"/>
<text x="1344" y="316" class="h2" text-anchor="end">آسیاب دستی E-Q40</text>
<text x="1344" y="344" class="h2" text-anchor="end" fill="#0F766E" style="fill:#0F766E">۴٬۸۹۰٬۰۰۰ تومان</text>
<text x="1344" y="370" class="body" text-anchor="end" fill="#15803D" style="fill:#15803D">موجودی جاری: ۸ عدد</text>
<text x="1344" y="406" class="label" text-anchor="end">انتخاب Variant</text>
<rect x="850" y="418" width="494" height="44" rx="6" fill="#FFFFFF" stroke="#64748B"/>
<text x="1332" y="446" class="body" text-anchor="end">استیل — موجود</text>
<text x="1344" y="498" class="body" text-anchor="end">• تیغه فولادی قابل تنظیم</text>
<text x="1344" y="526" class="body" text-anchor="end">• ظرفیت ۳۵ گرم</text>
<text x="1344" y="554" class="body mono" text-anchor="end">• شناسه SKU: EQ40-ST</text>
<rect x="850" y="636" width="494" height="48" rx="8" fill="#0F766E" stroke="#0F766E"/>
<text x="1097" y="666" class="label" text-anchor="middle" fill="#FFFFFF" style="fill:#FFFFFF">انتخاب مدل و ادامه</text>
<text x="1344" y="716" class="body" text-anchor="end">افزودن به مقایسه · علاقه‌مندی · هشدار</text>
<line x1="80" y1="932" x2="1360" y2="932" stroke="#CBD5E1"/>
<text x="1360" y="958" class="meta muted" text-anchor="end">راهنما · تماس · قوانین · بازگشت و ضمانت</text>
<text x="1360" y="978" class="meta muted" text-anchor="end">بدون ادعای Provider یا دارایی تأییدنشده</text>
<text x="80" y="984" class="meta mono" text-anchor="start">SF-C-01 · 55-C · initial · 1440px · v1</text>
</svg>
