<svg xmlns="http://www.w3.org/2000/svg" width="320" height="1260" viewBox="0 0 320 1260" role="img" aria-labelledby="title desc" lang="fa">
<title id="title">SF-E-02 — پروفایل و امنیت — step-up — 320px</title>
<desc id="desc">وایرفریم کم‌جزئیات فارسی و راست‌به‌چپ Step 55-E؛ اقدام اصلی ذخیره تغییرات پروفایل و بازیابی اصلاح فیلد یا تأیید دوباره هویت.</desc>
<style>text{font-family:Vazirmatn,Tahoma,Arial,sans-serif;fill:#0F172A}.h1{font-size:20px;font-weight:700}.h2{font-size:15px;font-weight:700}.body{font-size:12px}.label{font-size:11px;font-weight:600}.meta{font-size:9px}.muted{fill:#64748B}.mono{font-family:monospace}</style>
<rect x="0" y="0" width="320" height="1260" rx="0" fill="#F8FAFC" stroke="#F8FAFC"/>
<rect x="16" y="18" width="288" height="96" rx="8" fill="#FFFFFF" stroke="#CBD5E1"/>
<text x="292" y="46" class="label" text-anchor="end">EQCOFE · حساب من</text>
<rect x="28" y="30" width="112" height="44" rx="6" fill="#F8FAFC" stroke="#94A3B8"/>
<text x="132" y="58" class="body" text-anchor="end">جست‌وجوی محصول</text>
<text x="292" y="96" class="meta muted" text-anchor="end">منو · حساب · سبد</text>
<text x="304" y="134" class="meta muted" text-anchor="end">حساب کاربری / SF-E-02</text>
<text x="304" y="164" class="h1" text-anchor="end">پروفایل و امنیت</text>
<rect x="16" y="184" width="288" height="149" rx="8" fill="#FFFFFF" stroke="#B45309"/>
<text x="292" y="208" class="h2" text-anchor="end" fill="#B45309" style="fill:#B45309">تأیید هویت دوباره لازم</text>
<text x="292" y="228" class="h2" text-anchor="end" fill="#B45309" style="fill:#B45309">است</text>
<text x="292" y="249" class="body" text-anchor="end">برای تغییر شماره تماس یک OTP تازه</text>
<text x="292" y="266" class="body" text-anchor="end">لازم است و تغییر پیش از تأیید</text>
<text x="292" y="283" class="body" text-anchor="end">اعمال نمی‌شود.</text>
<text x="28" y="319" class="label" text-anchor="start" fill="#B45309" style="fill:#B45309">دریافت کد تأیید</text>
<rect x="16" y="349" width="288" height="560" rx="8" fill="#FFFFFF" stroke="#CBD5E1"/>
<text x="288" y="391" class="label" text-anchor="end">وضعیت نشست</text>
<rect x="32" y="403" width="256" height="48" rx="6" fill="#FFFFFF" stroke="#94A3B8"/>
<text x="276" y="433" class="body" text-anchor="end">اطلاعات ثبت‌شده</text>
<text x="288" y="489" class="label" text-anchor="end">نام و تماس</text>
<rect x="32" y="501" width="256" height="48" rx="6" fill="#FFFFFF" stroke="#94A3B8"/>
<text x="276" y="531" class="body" text-anchor="end">۰۹۱۲•••••••</text>
<text x="288" y="587" class="label" text-anchor="end">فیلدهای قابل ویرایش</text>
<rect x="32" y="599" width="256" height="48" rx="6" fill="#FFFFFF" stroke="#94A3B8"/>
<text x="276" y="629" class="body" text-anchor="end">اطلاعات ثبت‌شده</text>
<text x="288" y="685" class="label" text-anchor="end">step-up</text>
<rect x="32" y="697" width="256" height="48" rx="6" fill="#FFFFFF" stroke="#94A3B8"/>
<text x="276" y="727" class="body" text-anchor="end">اطلاعات ثبت‌شده</text>
<rect x="32" y="817" width="256" height="48" rx="8" fill="#0F766E" stroke="#0F766E"/>
<text x="160" y="847" class="label" text-anchor="middle" fill="#FFFFFF" style="fill:#FFFFFF">ذخیره تغییرات پروفایل</text>
<rect x="16" y="1172" width="288" height="56" rx="8" fill="#FFFFFF" stroke="#CBD5E1"/>
<text x="292" y="1206" class="meta muted" text-anchor="end">حریم خصوصی · پشتیبانی · شرایط</text>
<text x="16" y="1244" class="meta mono" text-anchor="start">SF-E-02 · 55-E · step-up · 320px · v1</text>
</svg>
